<?xml version="1.0" standalone="no"?><!DOCTYPE svg PUBLIC "-//W3C//DTD SVG 1.1//EN" "http://www.w3.org/Graphics/SVG/1.1/DTD/svg11.dtd"><svg t="1627186206394" class="icon" viewBox="0 0 1024 1024" version="1.1" xmlns="http://www.w3.org/2000/svg" p-id="6238" xmlns:xlink="http://www.w3.org/1999/xlink" width="200" height="200"><defs><style type="text/css">@font-face { font-family: feedback-iconfont; src: url("//at.alicdn.com/t/font_1031158_1uhr8ri0pk5.eot?#iefix") format("embedded-opentype"), url("//at.alicdn.com/t/font_1031158_1uhr8ri0pk5.woff2") format("woff2"), url("//at.alicdn.com/t/font_1031158_1uhr8ri0pk5.woff") format("woff"), url("//at.alicdn.com/t/font_1031158_1uhr8ri0pk5.ttf") format("truetype"), url("//at.alicdn.com/t/font_1031158_1uhr8ri0pk5.svg#iconfont") format("svg"); }
</style></defs><path d="M511.744 283.3408m-226.816 0a226.816 226.816 0 1 0 453.632 0 226.816 226.816 0 1 0-453.632 0Z" fill="#CC00FF" p-id="6239"></path><path d="M511.744 447.6416c-40.8576 0-79.2576-15.9232-108.1856-44.8-20.0192-20.0192-20.0192-52.4288 0-72.3968 20.0192-19.968 52.4288-19.968 72.3968 0 9.5744 9.5744 22.2208 14.7968 35.7376 14.7968s26.2144-5.2736 35.7376-14.7968c19.968-20.0192 52.4288-20.0192 72.3968 0 20.0192 20.0192 20.0192 52.4288 0 72.3968-28.8256 28.8768-67.2256 44.8-108.0832 44.8z" fill="#ffffff" p-id="6240"></path><path d="M748.0832 956.5184H275.4048c-114.3296 0-207.0016-92.672-207.0016-207.0016s92.672-207.0016 207.0016-207.0016h472.6784c114.3296 0 207.0016 92.672 207.0016 207.0016s-92.672 207.0016-207.0016 207.0016z" fill="#CC00FF" p-id="6241"></path></svg>