<?xml version="1.0" standalone="no"?><!DOCTYPE svg PUBLIC "-//W3C//DTD SVG 1.1//EN" "http://www.w3.org/Graphics/SVG/1.1/DTD/svg11.dtd"><svg t="1627186219089" class="icon" viewBox="0 0 1024 1024" version="1.1" xmlns="http://www.w3.org/2000/svg" p-id="6524" xmlns:xlink="http://www.w3.org/1999/xlink" width="200" height="200"><defs><style type="text/css">@font-face { font-family: feedback-iconfont; src: url("//at.alicdn.com/t/font_1031158_1uhr8ri0pk5.eot?#iefix") format("embedded-opentype"), url("//at.alicdn.com/t/font_1031158_1uhr8ri0pk5.woff2") format("woff2"), url("//at.alicdn.com/t/font_1031158_1uhr8ri0pk5.woff") format("woff"), url("//at.alicdn.com/t/font_1031158_1uhr8ri0pk5.ttf") format("truetype"), url("//at.alicdn.com/t/font_1031158_1uhr8ri0pk5.svg#iconfont") format("svg"); }
</style></defs><path d="M505.16483792 477.63777612c-120.85809303 0-219.16015123-98.30205819-219.16015122-219.16015123S384.30674489 39.3796115 505.16483792 39.3796115s219.16015123 98.30205819 219.16015123 219.16015122-98.36419603 219.09801339-219.16015123 219.0980134z m0-376.12032759c-86.55800699 0-157.02231419 70.40216937-157.02231419 157.02231419S418.60683093 415.49993908 505.16483792 415.49993908s157.02231419-70.40216937 157.0223142-157.02231419-70.4643072-156.96017635-157.0223142-156.96017636zM697.60571923 988.28652089H312.72395662c-131.73221452 0-238.91998341-107.18776889-238.9199834-238.91998341v-12.2411539c0-131.73221452 107.18776889-238.91998341 238.9199834-238.9199834h384.88176261c131.73221452 0 238.91998341 107.18776889 238.9199834 238.9199834v12.2411539c0 131.73221452-107.18776889 238.91998341-238.9199834 238.91998341z m-384.88176261-428.00542151c-97.49426631 0-176.78214637 79.28788005-176.78214637 176.78214637v12.2411539c0 97.49426631 79.28788005 176.78214637 176.78214637 176.78214637h384.88176261c97.49426631 0 176.78214637-79.28788005 176.78214637-176.78214637v-12.2411539c0-97.49426631-79.28788005-176.78214637-176.78214637-176.78214637H312.72395662z" fill="#8a8a8a" p-id="6525"></path></svg>